<svg xmlns="http://www.w3.org/2000/svg" viewBox="0 0 20480 20480"><g id="l5jsu7lcd4vS6g5LMk7zSR4" fill="rgb(246,246,247)"><g><path id="p141JD0hZr" d="M8608 11205 c-143 -27 -324 -111 -460 -212 -97 -74 -117 -100 -125 -163 l-6 -50 36 0 c20 0 42 6 49 13 24 23 202 105 293 136 50 17 133 37 185 46 173 28 448 15 619 -30 32 -8 84 -15 115 -15 l56 0 0 43 c0 37 -5 48 -37 78 -66 63 -108 89 -142 89 -23 0 -34 5 -38 18 -2 11 -25 25 -61 36 -77 26 -371 32 -484 11z"></path><path id="p8dLwgY77" d="M8510 10900 c-166 -20 -360 -94 -466 -178 -242 -192 -545 -688 -672 -1103 -11 -37 -26 -113 -33 -170 -36 -317 46 -499 227 -499 34 0 34 0 34 48 0 69 26 159 62 215 l31 48 -7 112 -7 112 34 -96 c18 -53 48 -119 65 -147 18 -29 27 -52 22 -52 -6 0 -10 5 -10 10 0 6 -18 10 -39 10 -35 0 -40 -3 -50 -31 -14 -41 -14 -348 -1 -477 23 -206 94 -396 177 -473 59 -55 156 -97 252 -111 64 -9 91 -8 157 5 128 26 214 75 319 181 109 110 166 207 254 436 33 85 61 150 61 145 0 -6 -11 -74 -25 -151 -43 -246 -89 -355 -213 -507 -33 -39 -64 -81 -70 -93 -38 -73 -193 -809 -243 -1154 -33 -223 -33 -509 -1 -629 61 -222 163 -319 350 -329 77 -4 87 -3 148 28 76 37 132 101 188 214 56 115 67 163 130 603 20 133 47 308 61 390 14 81 37 213 51 293 83 487 100 558 194 827 47 134 82 217 65 155 -35 -126 -77 -374 -82 -477 -7 -145 -3 -150 91 -149 167 2 480 175 607 336 l41 53 -6 67 c-5 58 -2 81 23 160 37 117 36 107 71 573 29 389 37 444 77 504 22 35 11 155 -32 318 -58 225 -130 377 -246 519 -140 172 -287 275 -497 348 -103 36 -387 96 -542 115 -95 12 -451 12 -550 1z m636 -750 c-6 -162 -16 -221 -40 -248 -10 -10 -16 -9 -30 7 -17 19 -17 27 18 210 20 105 36 201 36 213 1 22 1 22 12 4 8 -14 9 -70 4 -186z m369 -175 c19 -128 19 -216 1 -260 -18 -42 -30 -44 -53 -8 -16 24 -18 59 -20 338 l-2 310 30 -140 c16 -77 36 -185 44 -240z m283 133 c26 -81 57 -197 72 -271 10 -50 9 -62 -4 -83 -39 -58 -60 -7 -75 177 -6 80 -14 166 -17 192 -4 26 -4 47 -2 47 3 0 15 -28 26 -62z"></path><path id="pA9aAjD04" d="M10597 9679 c-10 -6 -29 -29 -44 -52 -14 -23 -34 -48 -44 -54 -23 -17 -37 -85 -44 -218 -6 -108 -22 -292 -60 -695 -4 -36 -18 -98 -31 -138 -30 -91 -32 -179 -4 -241 11 -24 20 -56 20 -71 0 -32 45 -76 88 -87 15 -3 29 -9 32 -13 26 -33 367 -149 542 -184 135 -27 368 -45 368 -28 0 6 40 8 108 5 95 -4 110 -2 140 16 51 33 72 76 72 151 0 117 10 109 -195 165 -330 92 -572 173 -695 233 -82 40 -95 51 -98 74 l-3 27 93 -40 c360 -157 541 -209 727 -209 101 0 133 14 179 82 71 103 82 174 38 239 -32 47 -76 67 -199 89 -159 29 -275 57 -367 88 -151 52 -410 168 -424 191 -4 5 -3 28 0 51 5 32 10 40 23 36 9 -2 132 -52 273 -110 355 -144 482 -187 579 -193 144 -10 197 28 250 179 23 66 29 100 29 168 0 139 -39 185 -179 210 -178 33 -435 114 -727 231 -99 39 -205 79 -238 90 -64 21 -179 25 -209 8z"></path><path id="p1H3zHQeJh" d="M15013 9679 c-11 -6 -29 -26 -39 -45 -10 -19 -21 -34 -25 -34 -3 0 -18 -17 -32 -37 -28 -41 -25 -23 -52 -393 -24 -325 -55 -587 -76 -648 -26 -75 -25 -192 1 -251 11 -24 20 -59 20 -77 l0 -35 58 2 c82 3 112 -12 112 -54 0 -34 0 -34 103 -72 221 -80 434 -128 635 -141 88 -6 102 -5 102 9 0 12 7 13 38 6 56 -13 149 -11 185 5 50 20 84 67 92 125 10 72 -2 126 -30 145 -13 8 -114 40 -224 71 -251 70 -497 154 -618 211 -80 39 -93 48 -93 69 0 14 2 25 5 25 3 0 90 -36 194 -79 290 -122 431 -161 574 -161 111 0 145 9 181 46 106 109 115 278 18 328 -15 8 -101 28 -191 46 -193 37 -277 62 -461 137 -105 43 -269 118 -276 127 -1 0 2 22 5 48 l6 47 85 -35 c311 -129 591 -237 677 -259 84 -22 177 -19 230 6 74 36 125 151 138 309 6 77 4 89 -17 129 -32 61 -59 78 -158 97 -206 38 -398 103 -875 296 -84 35 -114 42 -185 44 -49 2 -94 -1 -107 -7z"></path><path id="pUlljfbwQ" d="M5042 9625 c-54 -46 -66 -86 -141 -480 -76 -400 -96 -595 -70 -690 6 -22 28 -56 49 -77 31 -32 45 -38 79 -38 l41 0 -59 -72 c-85 -104 -111 -164 -111 -259 0 -98 26 -152 91 -187 40 -22 52 -23 144 -19 197 10 463 113 645 251 l85 64 5 -72 c8 -112 43 -146 152 -146 77 0 122 24 146 78 14 31 16 61 13 187 -7 253 -6 527 3 595 7 59 6 68 -14 93 -19 24 -28 27 -84 27 l-62 0 33 68 c64 128 81 352 34 457 -42 95 -165 175 -301 196 -107 16 -265 5 -373 -26 -89 -25 -107 -25 -107 0 0 7 -12 27 -26 44 -23 28 -31 31 -84 31 -48 0 -64 -5 -88 -25z m617 -384 c24 -5 52 -18 64 -29 20 -20 20 -22 3 -66 -21 -55 -80 -133 -232 -306 -121 -138 -332 -355 -338 -349 -7 7 43 316 64 399 38 147 123 285 201 326 61 31 154 41 238 25z m169 -572 c-5 -46 -11 -57 -64 -111 -68 -69 -148 -133 -219 -174 l-50 -28 55 61 c170 188 275 303 279 303 2 0 1 -23 -1 -51z"></path><path id="pIBb0ohTJ" d="M16604 9640 c-53 -21 -84 -96 -124 -300 -16 -80 -44 -215 -64 -300 -65 -291 -86 -550 -50 -626 22 -47 61 -72 116 -76 l47 -3 -56 -65 c-84 -97 -113 -166 -113 -265 0 -96 24 -147 85 -183 37 -21 49 -23 155 -19 100 3 130 9 229 42 140 46 322 137 417 209 l72 53 4 -69 c4 -66 6 -72 41 -104 35 -32 41 -34 108 -34 81 0 116 15 145 64 17 28 19 48 15 221 -7 295 -6 452 3 555 11 121 5 130 -90 130 -35 0 -64 2 -64 5 0 2 13 27 30 55 72 121 101 314 66 434 -27 93 -126 185 -231 215 -151 44 -400 28 -545 -33 -12 -5 -19 3 -28 28 -18 50 -56 76 -106 75 -22 0 -51 -4 -62 -9z m641 -424 c23 -15 26 -23 21 -48 -8 -42 -58 -120 -124 -198 -171 -198 -349 -388 -423 -450 l-45 -39 22 152 c26 172 61 302 107 397 39 78 138 184 188 199 54 16 222 8 254 -13z m100 -601 c-29 -60 -161 -176 -270 -236 l-60 -33 40 45 c22 25 99 107 170 182 124 129 130 134 133 107 2 -16 -4 -45 -13 -65z"></path><path id="p11o4dJofg" d="M3628 9611 c-32 -28 -33 -33 -37 -115 -2 -61 -7 -86 -16 -86 -7 0 -16 -12 -19 -27 -4 -16 -11 -235 -16 -488 -5 -253 -14 -516 -20 -584 -6 -68 -7 -127 -3 -130 4 -3 8 -42 8 -86 0 -78 1 -81 47 -152 26 -39 56 -76 67 -82 11 -6 53 -11 94 -11 72 0 77 2 124 39 85 67 227 273 377 546 90 164 89 169 25 -155 -44 -223 -49 -299 -19 -348 31 -51 75 -72 148 -72 60 0 66 2 99 35 23 23 44 35 62 35 46 0 60 28 86 171 68 381 94 657 102 1084 5 315 4 353 -11 382 -23 46 -62 63 -147 63 -67 0 -73 -2 -104 -33 -21 -21 -39 -54 -50 -92 -38 -132 -60 -182 -149 -342 -51 -93 -113 -206 -138 -253 -26 -47 -78 -139 -117 -205 l-71 -120 -1 175 c0 96 1 270 3 385 4 319 2 361 -23 402 -12 20 -43 48 -68 64 -40 26 -54 29 -123 29 -72 0 -80 -2 -110 -29z"></path><path id="pWq9NBPFd" d="M12121 9614 c-38 -31 -51 -77 -51 -176 0 -70 -2 -78 -19 -78 -17 0 -20 -10 -26 -72 -3 -40 -5 -200 -3 -356 2 -155 0 -282 -4 -282 -5 0 -8 -47 -8 -105 0 -63 4 -105 10 -105 6 0 10 -22 10 -50 0 -39 -4 -50 -16 -50 -13 0 -15 -20 -12 -163 l3 -164 33 -44 c18 -24 42 -59 53 -77 23 -39 53 -52 123 -52 40 0 62 7 97 28 97 62 249 279 428 612 28 52 51 92 51 89 0 -11 -40 -219 -64 -331 -14 -64 -28 -152 -32 -195 -5 -71 -4 -81 17 -112 43 -62 72 -76 156 -76 74 0 76 0 107 37 23 26 41 37 66 40 31 3 37 8 48 42 19 59 70 375 92 570 29 255 40 463 40 736 0 275 -4 297 -70 332 -28 16 -48 18 -104 14 -94 -7 -108 -21 -153 -166 -45 -144 -66 -192 -144 -327 -35 -59 -118 -205 -186 -323 -67 -118 -127 -222 -133 -230 -8 -11 -9 114 -6 438 4 381 2 455 -10 466 -8 8 -14 25 -14 38 0 32 -24 64 -71 93 -31 20 -52 25 -108 25 -60 0 -74 -4 -100 -26z"></path><path id="p18BPD2GkF" d="M6502 9615 c-171 -48 -264 -171 -324 -425 -28 -123 -36 -414 -14 -575 45 -339 167 -610 322 -715 73 -49 96 -58 178 -69 121 -17 179 -6 240 45 91 76 118 108 151 179 78 166 115 365 122 656 10 380 -37 598 -160 747 -48 58 -131 125 -186 149 -51 23 -259 28 -329 8z m197 -293 c30 -30 59 -99 94 -225 19 -73 22 -105 22 -287 -1 -223 -18 -355 -70 -517 -43 -137 -48 -136 -84 13 -63 262 -72 459 -36 752 21 164 21 162 -15 162 -27 0 -30 3 -30 30 0 24 -4 30 -22 30 -21 0 -21 0 3 26 47 51 98 57 138 16z"></path><path id="p15t9Mi6EC" d="M13930 9593 c-32 -22 -45 -39 -71 -87 -34 -64 -40 -185 -26 -556 6 -184 12 -400 12 -480 l0 -145 -170 -6 c-244 -10 -314 -38 -392 -155 -33 -50 -38 -65 -41 -131 -8 -149 25 -172 251 -173 119 0 147 -3 147 -14 0 -23 24 -26 233 -26 195 0 372 -9 637 -31 273 -24 275 -24 287 4 6 13 17 57 24 98 12 73 11 75 -16 128 -15 30 -33 76 -41 101 -18 60 -51 96 -101 109 -22 6 -102 18 -179 26 -184 20 -200 24 -220 46 -17 18 -18 63 -20 604 -3 617 -4 635 -48 643 -11 3 -33 17 -49 33 -27 27 -33 29 -111 29 -60 0 -88 -4 -106 -17z"></path><path id="p5W0eL1IH" d="M3124 9581 c-53 -24 -101 -83 -119 -146 -38 -130 -74 -777 -56 -1002 13 -160 37 -215 116 -264 l30 -19 -28 0 c-19 0 -30 -6 -34 -18 -3 -14 -12 -17 -44 -14 -39 4 -39 4 -39 -32 0 -20 -4 -36 -10 -36 -5 0 -10 -21 -10 -46 0 -75 43 -128 150 -185 39 -21 58 -24 150 -24 89 0 111 3 146 22 69 37 94 75 94 142 0 36 -6 65 -16 80 -16 22 -126 81 -151 81 -7 0 -13 5 -13 10 0 6 7 10 15 10 9 0 27 12 40 26 21 22 25 37 25 85 0 55 1 59 24 59 l23 0 6 373 c4 244 12 415 22 497 22 174 29 273 21 304 -5 21 -12 26 -36 26 -20 0 -31 6 -35 20 -3 10 -20 31 -36 45 -27 22 -39 25 -112 25 -58 0 -94 -6 -123 -19z"></path></g></g><g id="l4WGYC9EuYkGfTWmoRmAkOf" fill="rgb(176,176,176)" style="transform: none;"><g><path id="p11SfZQ247" d="M9052 11178 c3 -7 19 -17 36 -23 18 -5 32 -15 32 -22 0 -18 33 -33 59 -26 34 9 24 45 -16 57 -18 5 -33 13 -33 17 0 5 -18 9 -41 9 -28 0 -39 -4 -37 -12z"></path><path id="p17Pk6lsV2" d="M9328 10998 c25 -25 14 -39 -29 -35 -36 4 -40 2 -37 -17 3 -19 11 -21 71 -24 l67 -3 0 34 c0 41 -15 57 -54 57 -23 0 -27 -3 -18 -12z"></path><path id="pFXjHk9mC" d="M8043 10903 c-4 -10 -12 -22 -20 -26 -8 -5 -13 -26 -13 -52 l0 -45 41 0 c53 0 79 15 79 45 0 22 -3 24 -29 19 -41 -8 -45 8 -11 44 l29 32 -35 0 c-24 0 -37 -5 -41 -17z"></path><path id="p1DPdZBLZS" d="M9772 9763 c2 -5 9 -24 17 -44 12 -30 19 -36 40 -35 44 2 83 46 41 46 -11 0 -29 9 -40 20 -19 19 -66 29 -58 13z"></path><path id="p1En865YZw" d="M10890 9609 c0 -5 17 -17 38 -26 57 -25 72 -26 72 -3 0 13 -7 20 -20 20 -11 0 -20 5 -20 10 0 6 -16 10 -35 10 -19 0 -35 -5 -35 -11z"></path><path id="pGqPrEwwZ" d="M10830 9575 c0 -8 92 -46 97 -41 3 2 -17 14 -42 25 -51 23 -55 24 -55 16z"></path><path id="pZJXudnBG" d="M12358 9530 c16 -29 16 -32 0 -41 -13 -7 -17 -25 -17 -89 0 -46 4 -80 9 -80 6 0 10 31 10 70 0 55 3 70 15 70 8 0 17 -11 21 -25 3 -14 13 -25 21 -25 13 0 15 10 10 54 -7 68 -24 96 -59 96 l-27 0 17 -30z"></path><path id="p15Vsj54aB" d="M7701 9169 c-16 -46 -14 -89 4 -89 8 0 16 7 16 15 1 15 4 28 9 43 1 4 2 9 2 12 0 3 15 5 34 5 29 -1 34 2 34 22 0 21 -5 23 -44 23 -40 0 -45 -3 -55 -31z"></path><path id="pjIw8b2RQ" d="M4710 9125 c-2 -22 -3 -46 -3 -52 1 -7 -3 -10 -8 -7 -5 3 -9 18 -9 35 0 39 -16 37 -24 -2 -10 -50 -7 -59 14 -59 11 0 20 -7 20 -15 0 -8 9 -15 20 -15 18 0 20 7 20 55 0 30 -4 55 -9 55 -5 0 -12 10 -14 23 -3 14 -5 8 -7 -18z"></path><path id="pMDFGo8pj" d="M7848 9143 c-26 -7 -22 -21 12 -38 23 -12 30 -12 30 -3 0 10 2 10 9 0 6 -10 10 -8 14 9 3 12 4 26 1 31 -5 8 -36 9 -66 1z"></path><path id="pIgEEePzv" d="M13143 9075 c0 -33 2 -45 4 -27 2 18 2 45 0 60 -2 15 -4 0 -4 -33z"></path><path id="pjz8LGciG" d="M12020 8910 c0 -73 3 -90 15 -90 15 0 17 4 20 55 1 16 7 31 14 33 6 2 11 13 11 23 0 11 -4 18 -9 15 -5 -4 -12 7 -16 24 -4 16 -13 30 -21 30 -11 0 -14 -19 -14 -90z"></path><path id="p85BHwtoU" d="M4650 8973 c0 -14 -50 -376 -64 -468 -8 -49 -17 -108 -21 -130 -3 -22 -7 -47 -10 -55 -2 -8 -6 -31 -9 -50 -3 -19 -8 -46 -11 -60 -15 -71 -17 -100 -7 -100 9 0 22 46 36 135 3 17 12 71 20 120 8 50 17 108 20 130 2 22 13 108 24 190 26 192 36 295 28 295 -3 0 -6 -3 -6 -7z"></path><path id="pfHs24Mie" d="M3072 8895 c-2 -53 0 -65 13 -65 12 0 15 13 15 65 0 45 -4 65 -12 65 -9 0 -14 -21 -16 -65z"></path><path id="pDMLjO1hX" d="M13130 8958 c0 -18 -65 -461 -79 -543 -11 -60 -22 -126 -25 -145 -3 -19 -8 -46 -11 -60 -14 -66 -17 -110 -7 -110 12 0 16 17 37 155 2 11 12 74 24 140 44 257 81 565 67 565 -3 0 -6 -1 -6 -2z"></path><path id="pUDSEqP4b" d="M3070 8593 c0 -71 17 -174 35 -217 9 -21 18 -36 20 -34 3 2 0 31 -4 64 -5 32 -12 98 -16 147 -5 65 -10 87 -21 87 -10 0 -14 -13 -14 -47z"></path><path id="py3rbepqQ" d="M3532 8407 c-7 -7 -14 -81 -18 -165 -7 -148 -7 -152 13 -152 16 0 23 10 32 44 14 56 15 128 1 106 -6 -10 -8 -4 -7 22 1 20 7 36 12 35 6 -1 11 20 13 46 2 33 0 47 -7 42 -7 -3 -11 2 -11 14 0 24 -12 27 -28 8z"></path><path id="p3YaAr4z5" d="M11996 8389 c-3 -17 -6 -49 -6 -70 0 -32 4 -39 19 -39 11 0 22 8 24 18 4 16 5 16 6 0 0 -10 5 -18 9 -18 4 0 9 32 10 70 l3 70 -29 0 c-25 0 -30 -5 -36 -31z"></path><path id="pu0Wsrdj0" d="M14826 8232 c-12 -77 -12 -78 71 -117 42 -21 94 -40 115 -42 21 -3 38 -11 38 -17 0 -14 87 -46 124 -46 54 0 25 27 -61 58 -57 20 -78 31 -61 31 15 1 30 -3 33 -9 7 -12 55 -14 55 -2 0 4 16 6 35 4 26 -3 35 0 35 10 0 9 -23 21 -62 33 -35 10 -65 19 -68 20 -3 1 -18 5 -35 9 -92 23 -155 50 -182 76 l-30 30 -7 -38z"></path><path id="pJZq6v9Z4" d="M13570 8233 c-51 -8 -119 -35 -132 -50 -11 -15 -11 -16 7 -8 11 4 56 17 100 28 108 27 130 36 85 35 -19 0 -46 -3 -60 -5z"></path><path id="p10MyqEWQS" d="M10473 8197 c21 -17 23 -39 2 -31 -10 4 -15 0 -15 -15 0 -12 6 -21 15 -21 8 0 15 -4 15 -10 0 -5 9 -10 20 -10 11 0 20 -4 20 -10 0 -5 16 -10 35 -10 43 0 45 14 5 32 -39 17 -42 42 -4 27 31 -11 37 -8 29 13 -8 20 -45 36 -98 44 -37 5 -40 4 -24 -9z"></path><path id="pJeWxClUZ" d="M2994 8137 c-65 -19 -74 -31 -74 -103 0 -61 1 -64 24 -64 20 0 23 4 20 28 -2 15 -1 21 2 15 12 -26 45 -6 58 35 4 12 12 22 17 22 5 0 13 10 18 22 5 13 14 23 22 24 8 0 22 2 32 2 9 1 17 9 17 17 0 18 -73 19 -136 2z"></path><path id="pnX2Iaaqr" d="M11240 7966 c0 -7 15 -18 33 -24 l32 -10 -34 -1 c-26 -1 -32 -4 -27 -17 3 -9 6 -18 6 -20 0 -2 34 -4 75 -4 l75 0 0 33 c0 32 -2 34 -51 45 -68 16 -109 15 -109 -2z"></path><path id="p14T7XUjyI" d="M13675 7899 c-49 -4 -124 -5 -165 -3 -41 2 -90 1 -107 -2 -29 -6 -33 -10 -33 -39 0 -25 5 -34 23 -39 29 -8 241 -8 290 0 42 7 49 29 12 38 -14 4 -25 10 -25 15 0 10 105 25 119 17 5 -3 14 1 21 9 14 17 15 17 -135 4z"></path><path id="pQv2hxcBQ" d="M13768 7853 c-10 -2 -18 -11 -18 -19 0 -10 13 -14 45 -14 32 0 45 4 45 14 0 11 -33 28 -50 25 -3 -1 -13 -3 -22 -6z"></path></g></g><g id="l6wToC6x7b3gOVLHi3B1Pib" fill="rgb(75,75,75)" style="transform: none;"><g><path id="pwwiSvhl1" d="M8635 11465 c-141 -23 -225 -45 -225 -61 0 -19 30 -18 140 8 78 18 127 22 270 22 161 1 184 -1 295 -29 66 -16 122 -32 125 -35 10 -12 123 -60 141 -60 11 0 19 -7 19 -15 0 -8 7 -15 15 -15 8 0 15 -4 15 -10 0 -5 9 -10 20 -10 11 0 20 -7 20 -15 0 -8 8 -15 19 -15 10 0 21 -9 24 -20 3 -14 14 -20 31 -20 19 0 26 -5 26 -19 0 -11 11 -28 25 -39 14 -11 25 -24 25 -29 0 -16 105 -113 123 -113 9 0 17 -7 17 -15 0 -10 11 -15 35 -15 42 0 45 14 8 34 -16 8 -71 59 -124 114 -205 213 -414 325 -673 361 -100 14 -270 12 -371 -4z"></path><path id="pOYdJB7hF" d="M8314 11381 c-137 -54 -328 -172 -388 -240 l-19 -21 36 0 c25 0 41 7 54 23 10 13 26 26 36 30 9 3 17 11 17 17 0 5 7 10 15 10 8 0 15 3 15 8 0 4 10 12 23 18 60 30 203 108 207 114 3 4 22 10 43 14 31 6 37 11 37 31 0 14 -1 25 -2 25 -2 -1 -35 -13 -74 -29z"></path><path id="p5T04MqWv" d="M7806 11013 c-39 -50 -396 -677 -396 -696 0 -4 11 -7 23 -7 18 0 28 10 43 43 10 23 21 44 25 47 12 10 29 49 29 69 0 12 6 21 13 21 8 0 22 19 33 43 10 23 24 48 31 55 7 7 13 24 13 38 0 13 6 24 13 24 18 0 47 63 47 100 0 22 5 30 18 30 20 0 42 38 42 70 0 11 7 20 15 20 9 0 15 9 15 25 0 16 6 25 15 25 8 0 15 7 15 15 0 8 5 15 10 15 6 0 10 8 10 19 0 10 9 21 20 24 15 4 20 14 20 41 0 20 -2 36 -5 36 -3 0 -25 -26 -49 -57z"></path><path id="pBeT5ANqW" d="M9900 10917 c0 -20 9 -29 45 -44 25 -10 45 -21 45 -25 0 -5 16 -8 35 -8 19 0 35 4 35 10 0 8 -103 70 -142 85 -14 6 -18 2 -18 -18z"></path><path id="p1FZEysrwo" d="M10070 10821 c0 -24 4 -31 20 -31 11 0 20 -7 20 -15 0 -9 9 -15 24 -15 18 0 25 -6 28 -22 2 -19 10 -23 43 -26 l40 -2 -45 40 c-25 22 -64 54 -87 71 l-43 30 0 -30z"></path><path id="p16toOE6Hz" d="M10280 10638 c0 -34 24 -68 48 -68 7 0 12 -9 12 -20 0 -10 6 -23 13 -27 6 -4 18 -20 26 -35 8 -15 22 -37 33 -47 10 -11 18 -24 18 -30 0 -5 4 -11 8 -13 25 -10 143 -319 172 -450 11 -49 17 -58 35 -58 22 0 22 0 -12 127 -62 232 -146 411 -263 558 -26 33 -57 69 -69 79 -21 19 -21 19 -21 -16z"></path><path id="pnSvrO6bc" d="M9411 10461 c-6 -11 -9 -32 -5 -46 5 -20 13 -25 35 -25 27 0 29 2 23 28 -4 15 -14 35 -24 46 -18 18 -18 18 -29 -3z"></path><path id="pEBQd7vP6" d="M9133 10462 c-19 -12 -28 -63 -12 -73 29 -18 49 -10 49 19 0 34 -21 64 -37 54z"></path><path id="pxtSvlo8i" d="M4566 10294 c-10 -79 -8 -94 14 -94 11 0 20 6 20 13 1 6 10 -9 22 -35 11 -27 27 -48 34 -48 9 0 14 -12 14 -35 0 -19 5 -35 10 -35 6 0 10 -7 10 -15 0 -19 59 -139 71 -143 5 -2 9 -12 9 -23 0 -22 48 -122 61 -127 5 -2 9 -10 9 -18 0 -28 110 -12 117 18 3 10 11 18 18 18 7 0 37 11 67 25 70 33 103 31 174 -6 58 -31 59 -32 154 -24 207 18 419 8 448 -22 7 -7 24 -13 38 -13 13 0 24 -4 24 -9 0 -5 16 -15 35 -22 19 -7 35 -17 35 -21 0 -4 7 -8 15 -8 8 0 15 -4 15 -10 0 -5 11 -10 25 -10 18 0 25 -5 25 -18 0 -25 31 -52 58 -52 17 0 22 -6 22 -25 0 -22 4 -25 33 -25 44 0 77 35 77 80 l0 34 -39 -38 -40 -39 -59 59 c-99 98 -207 152 -362 180 -99 18 -167 17 -297 -2 l-107 -16 -63 32 c-108 56 -220 41 -325 -41 -34 -27 -41 -30 -53 -18 -8 8 -62 114 -120 237 -94 198 -170 342 -179 342 -2 0 -6 -21 -10 -46z"></path><path id="pjmyH6obf" d="M13040 10308 c0 -13 -3 -53 -7 -90 -6 -65 -5 -68 16 -68 16 0 21 6 22 28 l0 27 16 -32 c12 -23 24 -33 40 -33 20 0 22 2 12 28 -17 46 -83 162 -91 162 -4 0 -8 -10 -8 -22z"></path><path id="pBS2ytekH" d="M9724 10269 c3 -17 6 -40 6 -50 0 -15 7 -19 36 -19 34 0 36 2 30 26 -10 39 -38 73 -60 74 -15 0 -17 -5 -12 -31z"></path><path id="pfpuX3d0D" d="M7313 10123 c-69 -156 -163 -422 -163 -460 0 -7 8 -13 18 -13 13 0 27 33 65 148 26 81 47 153 47 160 0 6 4 12 9 12 9 0 41 77 41 99 0 7 7 19 15 27 17 17 21 84 4 84 -5 0 -22 -26 -36 -57z"></path><path id="pG9aHpaAC" d="M13140 10096 c0 -20 5 -36 10 -36 6 0 10 -9 10 -19 0 -24 137 -315 150 -319 6 -2 10 -9 10 -16 0 -7 13 -25 29 -40 30 -29 51 -106 51 -189 0 -30 4 -37 20 -37 24 0 25 12 6 139 -13 85 -17 97 -50 130 -24 24 -66 101 -126 226 -49 104 -94 191 -100 193 -6 2 -10 -12 -10 -32z"></path><path id="pJbuzfpxb" d="M4556 10068 c-3 -13 -6 -42 -6 -65 0 -36 3 -43 20 -43 18 0 20 7 20 65 0 49 -3 65 -14 65 -7 0 -16 -10 -20 -22z"></path><path id="pZyWZNoaW" d="M13026 10058 c-3 -13 -6 -47 -6 -75 0 -46 3 -53 20 -53 18 0 20 7 20 75 0 57 -3 75 -14 75 -7 0 -16 -10 -20 -22z"></path><path id="p19fjw4pFh" d="M13960 9953 c0 -62 9 -93 26 -93 9 0 14 11 14 30 0 20 5 30 15 30 8 0 15 -7 15 -15 0 -10 10 -15 30 -15 23 0 30 -4 30 -20 0 -11 7 -20 15 -20 8 0 15 -4 15 -10 0 -5 9 -10 20 -10 11 0 20 -7 20 -15 0 -9 9 -15 25 -15 18 0 25 -5 25 -20 0 -15 7 -20 25 -20 17 0 25 -5 25 -18 0 -20 59 -82 78 -82 7 0 12 -7 12 -15 0 -14 26 -62 40 -75 3 -3 12 -24 20 -47 9 -30 19 -43 32 -43 10 0 18 7 18 18 0 28 -57 140 -96 188 -42 50 -163 149 -306 248 l-98 67 0 -48z"></path><path id="p15kpu4Qs2" d="M15037 9890 c-177 -45 -325 -265 -327 -487 0 -16 6 -23 20 -23 16 0 20 7 20 36 0 52 22 164 32 164 4 0 8 14 8 30 0 20 5 30 15 30 8 0 17 11 21 25 3 14 10 25 15 25 5 0 9 11 9 25 0 18 5 25 18 25 20 0 62 39 62 58 0 7 9 12 20 12 11 0 20 6 20 14 0 8 17 17 43 22 56 11 227 9 235 -2 8 -12 167 -74 188 -74 9 0 22 -7 30 -15 9 -8 26 -15 40 -15 13 0 24 -4 24 -10 0 -5 11 -10 25 -10 14 0 25 -4 25 -10 0 -5 11 -10 25 -10 14 0 25 -4 25 -10 0 -5 11 -10 25 -10 14 0 25 -4 25 -10 0 -5 11 -10 25 -10 14 0 25 -4 25 -10 0 -5 17 -12 38 -16 20 -4 40 -11 43 -15 3 -5 29 -15 57 -21 29 -7 52 -16 52 -20 0 -5 16 -8 35 -8 19 0 35 -4 35 -9 0 -11 201 -61 277 -68 44 -5 53 -3 53 10 0 11 -13 18 -37 22 -178 31 -372 93 -693 222 -129 53 -266 106 -305 119 -78 28 -191 38 -248 24z"></path><path id="ptFkbXWOI" d="M10750 9870 c0 -13 7 -20 19 -20 11 0 58 -13 104 -30 47 -16 94 -30 105 -30 11 0 22 -4 24 -8 4 -11 258 -112 281 -112 9 0 17 -4 17 -10 0 -5 18 -13 40 -16 22 -4 40 -10 40 -15 0 -5 14 -9 30 -9 17 0 30 -4 30 -8 0 -11 179 -66 304 -93 64 -13 114 -19 141 -14 l42 6 28 84 c15 47 31 85 36 85 5 0 9 14 9 30 0 27 3 30 30 30 16 0 33 6 37 14 4 7 36 24 71 36 47 17 75 21 115 17 49 -5 168 -52 175 -69 2 -5 12 -8 23 -8 10 0 19 -6 19 -14 0 -8 16 -28 35 -45 19 -17 35 -35 35 -41 0 -5 5 -10 10 -10 6 0 10 -6 10 -14 0 -8 6 -21 14 -28 7 -8 17 -33 21 -56 5 -33 11 -42 27 -42 18 0 19 4 13 38 -22 115 -113 225 -242 289 -69 34 -85 38 -152 38 -110 0 -173 -25 -242 -94 -47 -48 -60 -68 -83 -139 -15 -45 -30 -82 -32 -82 -2 0 -55 11 -116 24 -150 32 -301 81 -538 176 -222 89 -426 160 -458 160 -15 0 -22 -6 -22 -20z"></path><path id="p1FacS2mEp" d="M4547 9861 c-3 -13 -22 -24 -59 -35 -111 -32 -201 -152 -253 -337 -15 -52 -31 -100 -37 -106 -14 -17 -28 -16 -28 2 0 8 -7 15 -15 15 -10 0 -15 -11 -15 -35 0 -34 1 -35 40 -35 36 0 40 3 40 25 0 15 6 25 14 25 8 0 20 25 30 68 10 37 26 87 37 111 10 24 19 56 19 72 0 22 5 29 19 29 21 0 31 19 31 61 0 27 3 29 35 29 19 0 35 4 35 9 0 5 11 12 25 15 14 4 25 11 25 16 0 6 13 10 29 10 49 0 61 9 61 46 0 37 -24 48 -33 15z"></path><path id="pjQSR3iHM" d="M3800 9831 c0 -17 6 -21 30 -21 17 0 30 -4 30 -8 0 -4 20 -18 45 -30 47 -23 105 -29 105 -13 0 13 -136 79 -177 87 -29 6 -33 4 -33 -15z"></path><path id="p126zOgJ1m" d="M13970 9836 c0 -8 -28 -30 -63 -49 -34 -20 -71 -45 -81 -56 -19 -21 -19 -21 16 -21 19 0 43 8 54 18 10 9 38 26 62 36 37 17 42 23 42 53 0 23 -5 33 -15 33 -8 0 -15 -6 -15 -14z"></path><path id="p12YbnNJ5R" d="M16680 9834 c0 -13 12 -24 38 -33 49 -17 112 -25 112 -14 0 14 -70 50 -112 58 -33 6 -38 5 -38 -11z"></path><path id="pJLGVPqzq" d="M3605 9823 c-16 -8 -51 -29 -78 -45 l-47 -30 -63 25 c-104 41 -217 47 -217 11 0 -10 14 -14 55 -14 36 0 77 -9 117 -25 77 -31 150 -33 178 -5 11 11 25 20 30 20 6 0 10 7 10 15 0 9 9 15 24 15 37 0 56 10 56 31 0 23 -24 24 -65 2z"></path><path id="pR9daLG53" d="M6552 9829 c-72 -12 -186 -61 -247 -107 l-50 -37 35 -3 c19 -2 36 1 38 7 2 6 10 11 17 11 7 0 15 4 17 8 2 5 44 26 93 47 114 49 214 57 339 29 44 -10 83 -21 86 -25 10 -13 90 -49 110 -49 11 0 20 -7 20 -15 0 -8 7 -15 15 -15 8 0 15 -4 15 -10 0 -5 17 -10 38 -10 l37 1 -35 30 c-55 47 -207 116 -292 133 -84 17 -153 19 -236 5z"></path><path id="pGSUXMR5E" d="M16543 9824 c-17 -9 -39 -24 -49 -35 -17 -18 -16 -19 19 -19 21 0 37 5 37 10 0 6 7 10 15 10 9 0 15 9 15 25 0 14 -1 25 -2 25 -2 0 -17 -8 -35 -16z"></path><path id="pNy1csMCc" d="M12923 9805 c-103 -52 -171 -156 -219 -336 -14 -52 -34 -103 -44 -114 -20 -19 -20 -19 -20 23 0 35 -3 42 -20 42 -16 0 -20 -7 -20 -35 0 -19 5 -35 10 -35 6 0 10 -9 10 -21 0 -17 5 -20 38 -17 30 2 38 7 40 26 2 12 7 22 12 22 4 0 19 44 31 98 13 53 29 102 35 109 6 7 20 33 30 57 11 25 22 46 27 46 4 0 7 16 7 35 0 33 2 35 35 35 19 0 35 4 35 8 0 4 16 14 35 21 27 9 35 18 35 37 0 13 -1 24 -3 24 -2 0 -26 -11 -54 -25z"></path><path id="pyt73z5Ym" d="M17108 9813 c-10 -2 -18 -11 -18 -19 0 -11 15 -14 60 -14 44 0 60 4 60 14 0 21 -55 32 -102 19z"></path><path id="pt6UtkT4V" d="M16990 9803 c-81 -12 -90 -15 -90 -28 0 -17 18 -18 98 -9 42 6 52 10 52 25 0 19 -7 21 -60 12z"></path><path id="pdkpaugrT" d="M17220 9793 c0 -14 18 -22 78 -36 42 -11 110 -34 151 -53 41 -19 80 -34 87 -34 8 0 14 -7 14 -15 0 -10 10 -15 29 -15 25 0 30 -4 33 -27 2 -20 9 -29 26 -31 16 -2 22 -10 22 -27 0 -13 6 -28 13 -32 13 -8 77 -141 77 -161 0 -7 10 -12 21 -12 19 0 21 4 15 33 -10 51 -60 148 -100 197 -88 104 -185 162 -346 207 -102 28 -120 29 -120 6z"></path><path id="p11Fqv4PM7" d="M3062 9760 c-75 -35 -160 -116 -195 -186 -45 -89 -73 -215 -92 -421 -7 -70 -6 -73 14 -73 18 0 21 6 21 38 0 83 40 303 66 364 14 35 31 77 37 95 7 17 20 34 29 36 10 3 18 14 18 26 0 15 6 21 21 21 12 0 23 8 26 20 3 11 14 20 24 20 11 0 19 7 19 15 0 9 9 15 22 15 40 0 88 23 88 42 0 26 -25 23 -98 -12z"></path><path id="pD0eL71I6" d="M16439 9730 c-26 -34 -71 -118 -89 -166 -8 -21 -7 -24 13 -24 19 0 30 14 58 73 19 39 38 75 42 78 5 3 7 21 5 40 l-3 34 -26 -35z"></path><path id="p12Ii5njVs" d="M4022 9719 c2 -26 8 -35 26 -37 15 -2 22 -10 22 -26 0 -12 8 -31 18 -42 10 -11 25 -41 32 -67 11 -35 19 -47 33 -47 52 0 -36 182 -115 239 -18 12 -19 11 -16 -20z"></path><path id="pGfHpYXfe" d="M13762 9660 c-46 -62 -69 -109 -87 -177 -20 -76 -19 -93 4 -93 14 0 20 10 25 42 7 45 55 161 68 166 4 2 8 10 8 17 0 7 5 15 11 17 6 2 9 19 7 38 l-3 35 -33 -45z"></path><path id="p1faQ4qKb" d="M10760 9661 c0 -12 13 -20 50 -31 27 -8 30 -6 30 16 0 21 -4 24 -40 24 -22 0 -40 -4 -40 -9z"></path><path id="pc0fswyep" d="M10700 9610 c-6 -4 10 -12 37 -18 26 -5 63 -15 81 -20 17 -6 32 -7 32 -3 0 20 -128 55 -150 41z"></path><path id="p2V6UgXUa" d="M14440 9330 c0 -104 3 -130 14 -130 19 0 26 32 26 130 0 98 -7 130 -26 130 -11 0 -14 -26 -14 -130z"></path><path id="pPPzxOAhF" d="M3570 9406 c0 -8 -4 -16 -10 -18 -5 -1 -12 -29 -16 -60 -6 -55 -6 -58 15 -58 17 0 21 6 22 33 1 17 5 43 9 57 6 19 8 11 10 -35 2 -46 4 -54 10 -35 4 14 8 49 9 78 1 49 0 52 -24 52 -15 0 -25 -6 -25 -14z"></path><path id="pKofJDY5i" d="M13656 9358 c-3 -13 -6 -97 -6 -188 0 -177 4 -210 26 -210 12 0 14 38 14 210 0 172 -2 210 -14 210 -7 0 -16 -10 -20 -22z"></path><path id="p1AFPfRP5s" d="M14706 9328 c-3 -13 -6 -40 -6 -60 0 -31 4 -38 20 -38 18 0 20 7 20 60 0 44 -4 60 -14 60 -7 0 -16 -10 -20 -22z"></path><path id="pkdLkBvLg" d="M17770 9237 c0 -48 -7 -94 -20 -132 -21 -62 -26 -125 -10 -125 6 0 10 -6 10 -14 0 -8 6 -21 13 -28 15 -15 37 -85 37 -117 0 -15 6 -21 21 -21 20 0 21 4 15 48 -3 26 -20 76 -37 111 l-32 64 17 54 c33 104 33 233 1 233 -12 0 -15 -16 -15 -73z"></path><path id="pOMbnig7Z" d="M13400 9195 c0 -74 3 -95 14 -95 19 0 26 32 26 118 0 65 -2 72 -20 72 -19 0 -20 -7 -20 -95z"></path><path id="pB4zkRUqT" d="M6567 9223 c-4 -3 -7 -16 -7 -28 0 -11 -4 -25 -9 -30 -10 -11 -31 -127 -31 -172 0 -21 6 -32 18 -35 10 -3 19 0 19 6 1 6 6 43 13 81 7 39 14 85 17 103 3 18 9 35 14 38 5 3 6 -8 4 -23 -7 -40 -25 -194 -25 -215 0 -11 7 -18 19 -18 20 0 25 25 37 208 l7 92 -35 0 c-19 0 -38 -3 -41 -7z"></path><path id="p191IwUz3L" d="M14696 9178 c-12 -48 -7 -78 14 -78 17 0 20 7 20 50 0 36 -4 50 -14 50 -7 0 -16 -10 -20 -22z"></path><path id="p19Ujqt0Gr" d="M7860 9177 c0 -11 -8 -17 -25 -17 -31 0 -33 -23 -2 -39 25 -13 79 -10 84 5 2 6 -10 23 -27 39 -23 22 -30 25 -30 12z"></path><path id="plfZ4cVF2" d="M14430 9090 c0 -44 4 -60 14 -60 16 0 26 30 26 83 0 30 -4 37 -20 37 -18 0 -20 -7 -20 -60z"></path><path id="pPKNnDWkZ" d="M14686 9058 c-12 -48 -7 -78 14 -78 17 0 20 7 20 50 0 36 -4 50 -14 50 -7 0 -16 -10 -20 -22z"></path><path id="p5Xs8epGc" d="M13390 8985 c0 -49 3 -65 14 -65 17 0 26 31 26 88 0 35 -3 42 -20 42 -18 0 -20 -7 -20 -65z"></path><path id="p6Xj9BhU4" d="M2766 9018 c-3 -13 -6 -47 -6 -75 0 -46 3 -53 20 -53 18 0 20 7 20 75 0 57 -3 75 -14 75 -7 0 -16 -10 -20 -22z"></path><path id="p13LT9C5aT" d="M14676 8908 c-3 -13 -6 -38 -6 -55 0 -26 4 -33 20 -33 18 0 20 7 20 55 0 40 -4 55 -14 55 -7 0 -16 -10 -20 -22z"></path><path id="pOuyzSUT8" d="M13380 8835 c0 -40 4 -55 14 -55 16 0 26 30 26 78 0 25 -4 32 -20 32 -18 0 -20 -7 -20 -55z"></path><path id="pA30MBg4o" d="M3081 8867 c-11 -13 -13 -49 -9 -162 4 -133 9 -167 23 -153 3 3 4 79 3 168 -3 140 -5 161 -17 147z"></path><path id="pQMpkynJv" d="M4627 8775 c-10 -89 -62 -419 -87 -553 -21 -108 -24 -140 -14 -129 18 18 119 670 112 726 -2 14 -7 -5 -11 -44z"></path><path id="pTm86KAJT" d="M13660 8743 c0 -101 7 -133 26 -133 11 0 14 23 14 110 0 103 -1 110 -20 110 -18 0 -20 -7 -20 -87z"></path><path id="p140GvOI4m" d="M13096 8690 c-9 -72 -33 -219 -52 -328 -19 -108 -38 -212 -41 -229 -3 -19 -1 -33 4 -33 10 0 61 300 98 565 8 61 17 120 19 133 2 12 0 22 -4 22 -3 0 -14 -59 -24 -130z"></path><path id="pFlgnvEdK" d="M2756 8778 c-8 -30 -8 -246 0 -275 4 -13 13 -23 20 -23 11 0 14 30 14 160 0 130 -3 160 -14 160 -7 0 -16 -10 -20 -22z"></path><path id="p8PYgfMLg" d="M7356 8778 c-3 -13 -6 -51 -6 -85 0 -47 4 -63 14 -63 17 0 26 31 26 88 0 59 17 52 35 -15 38 -139 105 -334 139 -403 91 -186 259 -352 414 -410 31 -12 98 -30 150 -40 51 -10 100 -24 108 -31 25 -21 15 -84 -55 -362 -75 -294 -94 -382 -116 -551 -20 -144 -19 -156 4 -156 16 0 19 11 25 78 12 132 45 297 113 562 80 310 82 320 83 392 0 72 -13 83 -130 103 -46 8 -92 17 -104 21 -37 10 -161 68 -164 76 -2 5 -10 8 -17 8 -7 0 -15 7 -19 15 -3 9 -18 15 -36 15 -25 0 -30 4 -30 25 0 21 -5 25 -30 25 -28 0 -30 3 -30 36 0 27 -5 37 -20 41 -11 3 -20 14 -20 24 0 11 -7 22 -15 25 -8 4 -15 12 -15 20 0 8 -4 14 -8 14 -4 0 -14 16 -21 36 -7 19 -19 38 -27 41 -8 3 -14 14 -14 25 0 10 -6 31 -14 46 -22 43 -73 194 -101 298 -28 107 -40 124 -83 124 -22 0 -31 -6 -36 -22z"></path><path id="pBZbna5rp" d="M14666 8768 c-3 -13 -6 -40 -6 -60 0 -31 4 -38 20 -38 18 0 20 7 20 60 0 44 -4 60 -14 60 -7 0 -16 -10 -20 -22z"></path><path id="peVGeZg0P" d="M13362 8638 c-15 -154 -15 -158 3 -158 8 0 15 -7 15 -16 0 -18 38 -16 128 7 38 10 52 18 52 31 0 24 -31 23 -109 -3 -34 -12 -64 -20 -66 -18 -1 2 3 56 11 119 18 153 18 160 -4 160 -16 0 -20 -16 -30 -122z"></path><path id="pJcQo1gpK" d="M14660 8647 c0 -7 -8 -28 -19 -47 -10 -19 -26 -61 -35 -93 l-17 -57 -42 6 c-61 10 -87 21 -87 39 0 8 -7 15 -15 15 -23 0 -20 -67 3 -73 41 -12 114 -18 145 -12 32 6 34 10 57 86 13 43 28 79 32 79 4 0 8 16 8 35 0 24 -5 35 -15 35 -8 0 -15 -6 -15 -13z"></path><path id="pCzUwe28S" d="M7336 8528 c-9 -123 -39 -274 -75 -381 -29 -85 -98 -229 -113 -235 -5 -2 -8 -12 -8 -22 0 -10 -9 -20 -20 -23 -12 -3 -20 -14 -20 -26 0 -12 -6 -21 -15 -21 -11 0 -15 -12 -15 -45 0 -45 17 -95 32 -95 4 0 8 -11 8 -25 0 -14 5 -25 10 -25 6 0 10 -4 10 -10 0 -16 -27 -12 -34 5 -3 8 -12 15 -21 15 -8 0 -15 4 -15 10 0 5 -11 12 -25 16 -14 3 -25 10 -25 15 0 15 -98 10 -166 -8 -48 -13 -64 -22 -64 -35 0 -23 6 -23 100 3 l78 22 39 -24 c21 -12 70 -46 108 -74 76 -56 114 -79 120 -73 3 2 -25 66 -61 141 -37 79 -62 143 -57 150 4 7 28 39 54 72 104 134 171 329 205 595 19 153 18 170 -5 170 -16 0 -19 -12 -25 -92z"></path><path id="pBMWvPp3J" d="M13666 8545 c-4 -14 -11 -25 -16 -25 -6 0 -10 -4 -10 -10 0 -5 14 -10 30 -10 28 0 30 3 30 35 0 41 -24 49 -34 10z"></path><path id="pZHsz5a6E" d="M12013 8533 c-9 -3 -13 -31 -13 -89 0 -68 3 -84 15 -84 8 0 15 7 15 15 0 8 7 15 15 15 12 0 15 15 14 78 -2 64 -3 70 -9 37 l-7 -40 -2 38 c-1 37 -4 40 -28 30z"></path><path id="p1C6q4FdMT" d="M2760 8401 c0 -11 7 -53 15 -95 14 -76 14 -77 -10 -112 -77 -113 -41 -318 75 -435 103 -103 220 -158 355 -166 108 -7 184 9 283 58 l83 42 42 -24 c36 -21 55 -24 132 -24 81 1 97 4 157 33 36 18 88 52 115 77 l48 44 -37 1 c-27 0 -41 -6 -56 -25 -11 -14 -24 -25 -30 -25 -6 0 -12 -4 -14 -8 -1 -5 -33 -21 -70 -35 -86 -35 -149 -35 -212 -2 -57 30 -108 32 -146 5 -69 -49 -141 -73 -236 -78 -83 -4 -102 -2 -168 22 -41 14 -81 26 -90 26 -9 0 -16 6 -16 14 0 16 -42 46 -65 46 -8 0 -15 6 -15 14 0 8 -16 28 -35 45 -19 17 -35 35 -35 40 0 5 -4 11 -8 13 -16 6 -54 115 -59 169 -4 43 -1 66 16 104 11 26 21 54 21 61 0 8 7 14 15 14 11 0 15 11 15 39 0 22 -4 42 -9 46 -5 3 -13 34 -16 70 -6 55 -10 65 -26 65 -12 0 -19 -7 -19 -19z"></path><path id="pg7k8lfef" d="M13510 8214 c-30 -8 -61 -21 -69 -29 -10 -9 9 -6 60 9 41 13 83 26 94 29 16 4 15 5 -5 5 -14 0 -50 -6 -80 -14z"></path><path id="pv6n95JsA" d="M2950 8088 c0 -19 1 -20 18 -6 9 9 26 18 37 21 11 3 4 5 -17 6 -33 1 -38 -2 -38 -21z"></path><path id="ptLADlq1N" d="M2983 8055 c2 -35 37 -50 37 -16 0 12 -6 21 -14 21 -8 0 -17 6 -20 13 -3 6 -4 -1 -3 -18z"></path><path id="p1EFXlmeQf" d="M10257 8022 c-10 -10 -17 -24 -17 -30 0 -7 -9 -12 -19 -12 -11 0 -31 -13 -44 -30 -14 -16 -28 -30 -30 -30 -2 0 -39 -23 -82 -51 -111 -73 -244 -134 -360 -164 -123 -31 -145 -47 -162 -111 -15 -62 -64 -402 -103 -729 -42 -355 -60 -450 -111 -586 -17 -46 -33 -96 -36 -112 -3 -15 -9 -27 -14 -27 -5 0 -9 -11 -9 -25 0 -15 -6 -25 -15 -25 -8 0 -17 -11 -21 -24 -3 -14 -12 -27 -20 -30 -8 -3 -14 -11 -14 -17 0 -7 -7 -17 -16 -23 -10 -8 -14 -24 -12 -46 l3 -35 47 60 c130 164 195 381 249 829 16 138 41 333 54 432 51 366 58 389 131 411 236 72 277 88 380 149 60 36 147 98 193 138 l85 74 37 -24 c118 -74 488 -209 711 -258 65 -15 169 -34 232 -43 114 -16 114 -16 170 7 51 20 61 21 100 10 25 -7 58 -9 77 -5 47 10 162 69 209 106 l38 31 69 -69 c75 -77 135 -110 216 -119 106 -13 206 24 315 116 l70 58 53 -52 c60 -58 128 -93 194 -103 40 -5 45 -3 45 13 0 15 -12 22 -53 32 -29 6 -60 12 -70 12 -9 0 -17 7 -17 15 0 8 -7 15 -15 15 -8 0 -15 5 -15 10 0 6 -16 10 -35 10 -33 0 -35 2 -35 35 0 32 -2 35 -30 35 -16 0 -30 -4 -30 -9 0 -6 -17 -11 -37 -13 -28 -2 -41 -9 -48 -25 -5 -13 -18 -23 -28 -23 -10 0 -20 -7 -23 -15 -4 -8 -12 -15 -20 -15 -8 0 -14 -4 -14 -10 0 -5 -7 -10 -15 -10 -8 0 -15 -4 -15 -8 0 -9 -103 -32 -145 -32 -35 0 -135 31 -135 42 0 4 -6 8 -14 8 -8 0 -16 7 -20 15 -3 9 -18 15 -36 15 -27 0 -30 3 -30 30 0 16 -6 33 -13 37 -8 4 -17 16 -20 26 -10 28 -89 20 -102 -10 -5 -13 -16 -23 -23 -23 -12 0 -61 -27 -72 -40 -3 -3 -27 -14 -55 -25 -37 -14 -72 -18 -132 -16 -57 1 -93 -3 -120 -14 -41 -18 -79 -16 -233 11 -170 30 -474 122 -624 188 -32 14 -71 26 -87 26 -18 0 -29 5 -29 14 0 15 -21 26 -51 26 -10 0 -19 6 -19 14 0 16 -50 36 -90 36 -15 0 -34 -8 -43 -18z"></path><path id="pV2Mz1aJ8" d="M11100 8007 c0 -11 59 -37 84 -37 13 0 5 38 -10 44 -29 11 -74 7 -74 -7z"></path><path id="pt28O6Bo6" d="M17786 7950 c-10 -33 -22 -60 -27 -60 -5 0 -9 -4 -9 -9 0 -14 -79 -89 -101 -96 -10 -4 -19 -11 -19 -16 0 -5 -9 -9 -20 -9 -11 0 -20 -4 -20 -10 0 -5 -20 -10 -45 -10 -39 0 -45 -3 -45 -21 0 -20 4 -21 48 -15 138 18 263 135 287 269 6 32 5 37 -11 37 -14 0 -24 -15 -38 -60z"></path><path id="p1Grl52NF" d="M11210 7982 c0 -17 12 -22 73 -35 116 -25 117 -26 17 -23 -52 2 -83 2 -67 -1 16 -2 27 -11 27 -20 0 -12 9 -14 40 -11 22 2 40 0 40 -4 0 -5 29 -8 64 -8 61 0 64 1 70 26 4 15 6 28 4 29 -5 4 -209 57 -240 63 -23 3 -28 1 -28 -16z"></path><path id="pdwy9pLxk" d="M15668 7973 c-3 -15 9 -21 62 -35 l65 -17 -67 6 c-64 5 -68 4 -68 -16 0 -18 6 -21 45 -21 25 0 45 5 45 11 0 6 7 3 16 -5 21 -22 104 -22 104 -1 0 8 5 15 10 15 6 0 10 6 10 13 0 9 -37 23 -105 40 -58 15 -107 27 -109 27 -3 0 -6 -8 -8 -17z"></path><path id="pb6eOQ28j" d="M11080 7930 c0 -16 7 -20 35 -20 37 0 49 22 19 34 -32 12 -54 6 -54 -14z"></path><path id="pTprwG44v" d="M15040 7863 c0 -18 3 -23 8 -16 6 10 33 5 113 -23 180 -61 349 -104 507 -129 l153 -24 40 20 c29 16 48 19 72 14 76 -16 158 4 247 60 22 14 43 25 48 25 4 0 21 -18 38 -40 38 -53 135 -126 187 -142 23 -7 87 -12 142 -12 135 2 276 44 546 165 l87 39 58 -35 c61 -37 140 -65 181 -65 16 0 23 6 23 20 0 15 -7 20 -27 20 -31 0 -164 58 -176 77 -9 15 -107 18 -107 3 0 -5 -9 -10 -20 -10 -24 0 -90 -31 -90 -42 0 -4 -11 -8 -25 -8 -14 0 -25 -4 -25 -9 0 -5 -12 -11 -27 -14 -16 -3 -89 -27 -163 -54 -127 -45 -141 -48 -235 -48 -78 0 -111 4 -147 20 -27 11 -48 23 -48 28 0 4 -11 7 -25 7 -17 0 -25 5 -25 18 0 23 -19 42 -42 42 -12 0 -18 8 -18 24 0 21 -6 24 -55 31 -57 7 -95 1 -95 -16 0 -5 -6 -9 -14 -9 -8 0 -21 -6 -28 -13 -19 -20 -81 -30 -167 -28 -48 2 -77 -2 -81 -10 -24 -38 -384 32 -646 126 -54 19 -114 35 -131 35 -29 0 -33 -3 -33 -27z"></path><path id="pSRIT9QDS" d="M6197 7863 c-4 -3 -7 -17 -7 -30 0 -19 -5 -23 -30 -23 -16 0 -33 -6 -37 -12 -12 -20 -80 -48 -129 -55 -35 -5 -44 -10 -44 -26 0 -18 4 -19 53 -13 71 10 122 34 186 89 l55 47 27 -33 28 -32 1 38 c0 26 -4 37 -15 37 -8 0 -15 5 -15 10 0 11 -63 14 -73 3z"></path><path id="pyX2IyJNL" d="M4060 7834 c0 -22 3 -25 12 -16 9 9 25 -1 69 -44 32 -30 84 -66 115 -81 113 -52 261 -37 385 38 l66 40 64 -64 c73 -72 118 -96 195 -104 50 -5 54 -4 54 16 0 17 -6 21 -31 21 -39 0 -109 20 -109 32 0 4 -6 8 -14 8 -8 0 -16 7 -20 15 -3 8 -17 15 -31 15 -19 0 -25 5 -25 23 0 28 -17 47 -42 47 -10 0 -18 5 -18 10 0 16 -67 12 -84 -5 -8 -8 -19 -15 -24 -15 -6 0 -12 -4 -14 -8 -8 -20 -118 -55 -184 -60 -62 -4 -79 -1 -135 24 -35 15 -68 34 -72 41 -4 7 -23 13 -42 13 -32 0 -34 2 -37 38 -3 35 -5 37 -40 40 -36 3 -38 1 -38 -24z"></path><path id="pijhTVK7l" d="M5670 7818 c1 -7 22 -24 48 -37 26 -13 67 -34 92 -47 25 -13 64 -26 88 -30 38 -6 42 -5 42 14 0 17 -9 21 -50 27 -27 4 -50 11 -50 16 0 5 -11 11 -25 15 -14 3 -25 10 -25 15 0 5 -5 9 -11 9 -6 0 -17 7 -25 15 -19 18 -84 20 -84 3z"></path><path id="pD22dTDOZ" d="M15000 7786 c0 -13 -4 -26 -8 -28 -16 -7 -52 -67 -52 -87 0 -13 -6 -21 -17 -21 -10 0 -39 -11 -66 -24 -58 -30 -163 -43 -209 -27 -47 17 -205 39 -330 47 -94 6 -108 5 -108 -9 0 -18 24 -24 145 -32 102 -7 182 -19 273 -41 73 -18 160 -11 239 18 60 22 124 86 153 154 25 58 25 74 0 74 -14 0 -20 -7 -20 -24z"></path><path id="pebHhseMz" d="M5570 7790 c0 -5 -5 -10 -12 -10 -7 0 -60 -20 -118 -44 -117 -50 -282 -96 -341 -96 -32 0 -39 -3 -39 -20 0 -25 27 -26 133 -6 143 28 447 147 447 175 0 6 -16 11 -35 11 -19 0 -35 -4 -35 -10z"></path><path id="pBZjrKxsH" d="M13113 7778 c-13 -6 -23 -17 -23 -25 0 -7 -8 -13 -17 -13 -10 0 -42 -9 -71 -20 -29 -11 -63 -20 -77 -20 -18 0 -25 -5 -25 -20 0 -37 84 -21 196 37 l72 37 44 -40 c56 -52 123 -91 171 -99 32 -6 37 -5 37 12 0 14 -14 24 -55 38 -30 10 -55 22 -55 27 0 4 -4 8 -9 8 -4 0 -29 20 -53 45 -48 48 -86 57 -135 33z"></path><path id="pJ7oCQDkG" d="M6335 7740 c34 -38 105 -72 136 -66 19 3 40 -1 61 -14 32 -18 127 -40 175 -40 16 0 23 6 23 19 0 15 -11 19 -61 25 -34 3 -78 15 -98 25 -20 11 -59 22 -87 24 -35 2 -59 11 -75 25 -14 14 -36 22 -57 22 -34 0 -35 0 -17 -20z"></path><path id="pViTfNQax" d="M13550 7640 c0 -18 7 -20 88 -20 100 0 132 7 132 26 0 11 -23 14 -110 14 -103 0 -110 -1 -110 -20z"></path><path id="p1EY7hnby4" d="M13840 7646 c0 -21 33 -26 178 -26 125 0 132 1 132 20 0 19 -7 20 -155 20 -125 0 -155 -3 -155 -14z"></path><path id="p1B4POUr4l" d="M13448 7643 c-10 -2 -18 -11 -18 -18 0 -7 8 -15 18 -17 28 -6 92 13 92 28 0 14 -52 18 -92 7z"></path><path id="pXlMQdkCK" d="M8044 6685 c-9 -47 3 -105 21 -105 12 0 15 15 15 70 0 55 -3 70 -15 70 -8 0 -17 -14 -21 -35z"></path><path id="pxRpjC1Gm" d="M8050 6509 c0 -47 43 -229 73 -309 42 -110 93 -187 188 -280 131 -130 239 -180 402 -188 167 -8 290 31 393 123 l49 44 -37 1 c-24 0 -41 -6 -50 -18 -17 -22 -123 -78 -185 -97 -56 -17 -201 -19 -258 -4 -51 14 -159 61 -163 71 -2 4 -10 8 -17 8 -7 0 -15 7 -19 15 -3 8 -15 15 -26 15 -11 0 -20 6 -20 13 0 16 -82 97 -98 97 -7 0 -12 9 -12 20 0 10 -6 23 -12 27 -51 32 -148 284 -164 422 -5 50 -10 61 -25 61 -13 0 -19 -7 -19 -21z"></path></g></g><g id="lBdgU5R4sgXAZUWVXbT7Ni" fill="rgb(10,9,9)" style="transform: none;"><g><path id="pWaHEmdLD" d="M8730 11468 c-305 -17 -590 -136 -812 -337 -55 -51 -178 -198 -178 -214 0 -3 -16 -34 -36 -69 -21 -34 -51 -90 -68 -122 -17 -33 -38 -71 -46 -85 -8 -14 -28 -48 -43 -76 -15 -27 -50 -90 -78 -140 -120 -216 -229 -467 -290 -670 -18 -60 -34 -112 -36 -114 -1 -2 -21 13 -44 33 -56 47 -199 120 -275 140 -93 24 -258 21 -337 -5 -113 -38 -178 -79 -263 -165 l-81 -83 -58 59 c-57 58 -157 123 -224 148 -118 42 -303 54 -468 30 l-83 -12 -63 32 c-49 26 -74 32 -122 32 -65 0 -143 -30 -197 -75 -16 -14 -36 -25 -44 -25 -8 0 -37 49 -70 118 -124 260 -215 441 -228 451 -15 13 -19 -30 -32 -332 l-6 -147 -27 -5 c-42 -9 -126 -54 -154 -83 -41 -43 -104 -170 -128 -257 -21 -78 -46 -135 -60 -135 -4 0 -9 44 -11 98 -5 116 -26 166 -101 249 -35 38 -75 67 -131 95 -72 37 -91 42 -166 46 -96 4 -160 -14 -234 -69 -49 -35 -56 -36 -134 -4 -126 51 -298 26 -411 -61 -167 -127 -216 -331 -228 -951 -6 -307 4 -479 28 -509 7 -8 1 -25 -15 -48 -39 -58 -49 -101 -44 -190 8 -134 60 -223 188 -320 168 -128 434 -134 601 -15 l31 21 53 -27 c49 -25 62 -27 142 -23 110 4 170 30 271 117 l71 61 51 -51 c29 -29 77 -63 115 -81 63 -29 71 -30 168 -26 106 4 148 17 249 80 l36 23 60 -61 c32 -33 81 -71 108 -84 44 -22 62 -24 169 -23 171 1 300 38 559 157 43 20 82 36 88 36 6 0 39 -17 72 -39 81 -51 155 -67 243 -51 80 14 123 34 186 91 l49 42 41 -48 c23 -27 68 -66 101 -87 48 -31 66 -37 91 -32 22 4 42 -1 66 -15 22 -13 70 -25 133 -32 93 -12 104 -11 192 11 109 28 96 32 248 -77 56 -40 102 -69 104 -65 1 5 -25 66 -58 136 -33 70 -60 131 -60 137 0 5 23 39 50 76 128 166 196 384 220 708 16 208 18 221 35 204 8 -8 25 -58 40 -111 79 -302 181 -491 339 -634 100 -90 206 -135 398 -168 20 -4 47 -15 59 -25 22 -17 22 -22 12 -82 -5 -35 -39 -179 -76 -319 -147 -570 -164 -880 -66 -1175 44 -131 97 -216 203 -320 142 -141 246 -186 433 -187 121 -1 177 12 275 64 111 59 240 206 296 338 82 192 104 293 152 695 39 327 88 667 103 729 17 64 39 80 162 111 173 45 352 142 498 269 81 71 87 72 137 31 27 -22 273 -122 415 -168 213 -69 326 -96 525 -122 87 -11 99 -11 143 6 54 21 99 24 128 8 40 -21 208 50 282 120 l28 26 22 -30 c35 -50 106 -113 155 -137 40 -19 63 -23 147 -23 121 0 154 13 269 105 l79 64 20 -28 c36 -50 118 -102 188 -120 116 -29 204 -17 322 43 l77 40 61 -54 c36 -33 83 -63 117 -76 54 -20 63 -21 168 -10 295 30 961 -1 1103 -50 22 -8 66 -10 124 -6 126 8 186 39 244 124 26 39 46 84 53 118 6 30 17 55 23 55 7 0 56 -16 111 -35 184 -66 420 -122 592 -140 46 -5 69 -3 91 8 20 11 55 15 115 14 83 -2 88 -1 171 42 l86 44 60 -64 c32 -36 83 -78 112 -94 49 -27 65 -30 166 -33 98 -4 124 -1 204 22 96 28 261 91 387 147 61 28 76 31 90 21 9 -7 51 -29 92 -49 69 -34 81 -37 160 -37 72 1 94 5 143 29 68 33 139 106 170 173 22 46 22 56 22 502 0 486 0 491 -51 572 l-23 37 19 57 c25 73 27 226 4 305 -47 156 -154 282 -296 348 -46 22 -123 49 -173 61 -92 23 -187 24 -406 4 -58 -5 -71 -3 -120 21 -34 18 -76 29 -116 33 -53 4 -70 1 -117 -22 -73 -36 -116 -86 -176 -206 -41 -82 -54 -100 -73 -100 -29 0 -229 46 -292 67 -135 44 -240 84 -465 173 -323 129 -326 130 -424 130 -122 0 -166 -19 -251 -104 -76 -77 -128 -168 -145 -251 -9 -48 -24 -228 -55 -688 -11 -160 -20 -227 -32 -250 -9 -18 -24 -57 -33 -87 l-17 -55 -44 3 c-24 1 -55 5 -68 8 l-24 5 7 499 c6 495 6 499 -15 557 -53 141 -138 229 -381 396 -53 37 -99 67 -103 67 -3 0 -3 -39 1 -87 l6 -88 -58 -30 c-116 -59 -206 -180 -240 -321 -14 -60 -16 -127 -13 -504 l4 -435 -80 -6 c-44 -3 -106 -14 -137 -24 -32 -10 -60 -16 -63 -13 -3 3 1 70 9 149 25 229 38 468 39 694 2 257 -9 322 -60 379 -31 34 -141 246 -192 371 -27 66 -122 245 -131 245 -4 0 -10 -57 -14 -127 -19 -385 -17 -363 -38 -363 -32 0 -136 -60 -168 -97 -45 -50 -96 -159 -120 -253 -23 -90 -45 -140 -60 -140 -6 0 -10 8 -10 18 -2 158 -5 178 -37 243 -52 105 -177 207 -287 233 -56 14 -151 8 -204 -12 -103 -39 -164 -109 -197 -225 -9 -32 -23 -61 -30 -63 -45 -18 -387 85 -689 206 -265 106 -371 140 -456 148 l-75 7 -12 40 c-6 22 -23 83 -38 135 -60 216 -162 407 -302 566 -117 133 -253 230 -463 331 -62 31 -94 56 -190 153 -131 132 -209 191 -330 249 -169 80 -366 113 -600 99z m290 -293 c99 -23 203 -80 284 -157 67 -63 69 -67 44 -68 -15 0 -60 9 -100 20 -246 67 -633 67 -851 0 -99 -31 -221 -85 -281 -125 -29 -19 -58 -35 -65 -35 -43 0 35 88 150 169 136 97 303 171 437 195 104 19 301 19 382 1z m10 -306 c155 -19 439 -79 542 -115 210 -73 357 -176 497 -348 112 -137 187 -291 242 -499 43 -163 54 -250 35 -279 -39 -59 -47 -115 -76 -503 -35 -467 -34 -456 -72 -575 -25 -79 -29 -106 -25 -163 4 -67 4 -69 -35 -118 -138 -175 -545 -384 -623 -319 -31 26 -14 175 56 487 16 73 29 153 29 178 0 39 -3 45 -21 45 -25 0 -45 -44 -119 -254 -94 -268 -111 -339 -194 -826 -14 -80 -37 -212 -51 -293 -14 -82 -41 -257 -61 -390 -63 -440 -74 -488 -130 -603 -56 -113 -112 -177 -188 -214 -58 -29 -73 -32 -120 -27 -67 7 -157 48 -202 93 -45 46 -88 132 -115 235 -32 117 -32 350 0 569 49 342 205 1081 243 1154 6 12 37 54 70 93 133 163 172 262 224 576 38 229 40 282 10 282 -15 0 -27 -26 -66 -140 -108 -323 -175 -450 -305 -581 -102 -103 -191 -154 -308 -178 -121 -25 -266 16 -360 103 -83 77 -154 267 -177 473 -20 188 -10 448 18 448 3 0 20 -12 39 -26 19 -14 41 -27 48 -28 8 -1 18 -5 21 -9 11 -11 36 -8 29 3 -3 6 -1 10 4 10 19 0 12 15 -34 75 -57 73 -94 152 -134 283 -22 69 -37 102 -47 102 -29 0 -35 -48 -23 -177 l11 -124 -31 -47 c-35 -55 -61 -146 -61 -215 l0 -49 -32 7 c-81 17 -149 113 -170 240 -14 84 2 261 33 362 128 417 431 913 673 1105 106 84 300 158 466 178 99 11 395 11 490 -1z m1725 -1220 c22 -6 128 -46 235 -89 306 -123 568 -207 751 -240 169 -30 215 -123 153 -308 -35 -105 -65 -149 -121 -174 -60 -26 -122 -20 -263 28 -112 39 -484 186 -639 253 -52 23 -96 40 -98 38 -1 -2 -4 -43 -5 -92 l-3 -88 34 -20 c57 -34 269 -126 375 -163 106 -37 213 -63 383 -94 123 -22 167 -42 199 -89 28 -42 30 -61 8 -104 -60 -117 -110 -157 -195 -157 -155 0 -331 52 -693 207 -70 30 -135 52 -143 49 -10 -4 -13 -20 -11 -63 3 -57 4 -58 46 -81 109 -60 380 -155 680 -238 180 -49 225 -63 241 -73 8 -5 16 -31 18 -63 5 -62 -17 -106 -69 -138 -59 -36 -104 -29 -468 63 -352 90 -647 180 -706 216 -37 23 -84 111 -84 158 0 18 11 65 24 105 13 40 27 102 31 138 38 403 54 587 60 695 7 133 21 201 44 218 10 6 30 31 44 54 15 23 34 46 44 52 23 14 78 14 128 0z m4520 -37 c308 -123 410 -163 506 -195 145 -49 267 -82 369 -101 98 -19 127 -36 157 -95 25 -49 23 -116 -7 -213 -57 -186 -146 -223 -360 -149 -164 56 -622 239 -702 280 -21 11 -40 16 -42 13 -2 -4 -7 -45 -11 -92 l-6 -86 98 -46 c250 -119 409 -173 643 -218 91 -18 177 -38 192 -46 32 -16 68 -72 68 -105 0 -34 -48 -123 -87 -164 -27 -27 -43 -35 -90 -41 -131 -16 -299 28 -630 168 -117 49 -217 87 -223 83 -5 -3 -10 -33 -10 -65 l0 -59 93 -45 c121 -57 367 -141 618 -211 110 -31 211 -62 224 -71 45 -29 39 -123 -11 -175 -42 -44 -88 -54 -176 -40 -75 12 -81 13 -110 24 -39 15 -48 16 -48 7 0 -6 -7 -10 -15 -10 -8 0 -15 6 -15 14 0 9 -44 24 -132 45 -191 46 -551 148 -633 179 -61 24 -73 33 -99 75 -40 65 -45 134 -17 218 22 70 51 314 76 649 27 370 24 352 52 393 14 20 29 37 32 37 4 0 15 15 25 34 10 19 28 39 39 45 38 19 127 5 232 -37z m-10092 -22 c14 -16 28 -43 32 -60 4 -16 10 -30 15 -30 5 0 50 14 100 31 244 81 470 54 600 -72 78 -76 102 -180 76 -329 -18 -103 -64 -199 -141 -295 -82 -103 -253 -292 -397 -439 -70 -72 -126 -131 -124 -133 8 -8 121 34 193 72 97 51 175 110 256 193 55 56 59 63 67 123 10 82 29 126 71 167 29 29 39 33 78 30 34 -2 48 -9 63 -29 17 -22 18 -31 8 -73 -14 -62 -14 -382 0 -516 17 -160 -1 -243 -62 -280 -61 -37 -136 -19 -172 40 -11 20 -16 52 -16 114 0 47 -3 86 -7 86 -5 0 -50 -33 -101 -74 -163 -128 -316 -204 -515 -256 -144 -37 -199 -38 -257 -7 -87 46 -113 151 -64 257 37 80 75 124 308 355 297 294 515 545 558 641 47 107 18 157 -98 169 -87 10 -189 1 -242 -20 -24 -10 -62 -39 -89 -69 -93 -102 -141 -242 -183 -541 -12 -82 -28 -164 -36 -181 -24 -50 -67 -85 -113 -91 -37 -5 -44 -2 -80 33 -67 67 -74 131 -41 359 19 128 78 452 116 635 21 99 50 165 86 195 41 34 80 32 111 -5z m11528 1 c16 -16 32 -44 35 -61 4 -17 10 -33 14 -35 5 -3 41 8 82 24 182 73 425 70 554 -5 116 -68 172 -175 161 -309 -17 -205 -122 -360 -521 -770 -97 -99 -176 -181 -176 -182 0 -1 24 5 53 13 102 30 252 112 333 182 114 99 133 127 145 206 17 122 67 186 145 186 65 0 78 -18 67 -99 -9 -71 -10 -300 -3 -556 5 -144 3 -163 -14 -191 -25 -42 -65 -64 -115 -64 -33 0 -49 7 -79 34 l-37 35 0 84 c0 47 -3 89 -7 93 -4 3 -38 -18 -75 -48 -135 -110 -280 -188 -467 -250 -158 -53 -269 -62 -331 -26 -92 54 -109 156 -49 279 33 66 61 98 269 304 327 325 530 552 578 647 74 146 35 187 -173 188 -134 0 -163 -10 -235 -84 -104 -106 -158 -250 -200 -533 -26 -172 -44 -225 -91 -262 -56 -44 -144 -18 -178 53 -33 69 -14 279 50 566 20 85 48 220 64 300 31 160 49 216 81 261 39 55 79 61 120 20z m-12880 -10 c25 -16 56 -45 68 -65 25 -40 24 -23 17 -784 -1 -145 0 -265 4 -267 7 -4 173 279 305 520 49 88 107 195 131 238 43 77 65 133 99 252 24 81 67 125 124 125 55 0 97 -22 117 -63 15 -29 16 -65 11 -352 -8 -397 -35 -683 -102 -1054 -24 -136 -40 -171 -77 -171 -22 0 -23 22 -4 103 8 31 10 57 6 57 -5 0 -16 -37 -26 -82 -21 -100 -59 -148 -116 -148 -66 0 -138 70 -138 135 0 17 16 107 34 200 39 190 82 442 90 523 3 30 9 58 12 63 3 5 3 9 0 9 -3 0 -39 -69 -79 -152 -164 -342 -369 -662 -480 -749 -40 -32 -57 -39 -94 -39 -62 0 -78 11 -129 90 -53 83 -67 143 -59 260 3 47 10 141 15 210 5 69 10 292 12 495 2 377 6 431 31 450 10 7 16 36 19 89 3 73 5 80 36 107 45 40 110 40 173 0z m8468 4 c22 -13 52 -41 68 -61 l28 -37 -4 -519 c-2 -308 0 -518 6 -518 5 0 29 35 53 78 143 254 255 450 291 509 83 136 138 253 178 379 45 144 62 168 126 178 52 8 104 -18 127 -65 16 -29 18 -64 18 -249 0 -354 -29 -698 -89 -1057 -39 -229 -47 -257 -83 -261 -32 -4 -33 -2 -13 88 8 36 14 79 14 95 l-1 30 -9 -30 c-5 -16 -18 -70 -28 -119 -24 -110 -49 -141 -115 -141 -51 0 -88 23 -124 75 -26 39 -25 65 15 250 32 150 69 354 82 460 7 47 14 99 17 115 2 17 -42 -62 -99 -175 -201 -400 -379 -661 -490 -720 -60 -32 -111 -21 -144 30 -12 19 -35 53 -51 75 -16 22 -32 48 -36 58 -7 20 -8 385 -2 427 3 14 5 52 7 85 l2 60 7 -60 c4 -33 4 91 2 275 -5 305 2 500 15 486 3 -3 5 -87 5 -188 0 -240 13 -164 22 127 4 121 11 237 17 257 22 82 111 112 188 63z m-5498 -8 c54 -24 137 -90 186 -149 120 -145 171 -373 160 -718 -8 -261 -48 -468 -122 -625 -33 -71 -59 -102 -153 -181 -50 -41 -90 -55 -137 -44 -5 1 -33 4 -62 5 -54 4 -84 16 -157 65 -123 83 -216 252 -286 516 -88 338 -52 787 79 977 87 127 200 180 366 173 50 -2 106 -11 126 -19z m7312 -21 c20 -19 27 -37 33 -85 8 -72 24 -71 24 1 0 43 2 49 15 38 8 -7 17 -26 20 -44 3 -17 7 -289 9 -603 2 -526 4 -574 20 -592 20 -22 37 -26 220 -46 77 -8 157 -20 179 -26 50 -13 83 -49 101 -109 8 -25 25 -69 38 -96 23 -46 24 -53 13 -104 -21 -93 -21 -93 -79 -86 -306 35 -639 50 -961 43 -165 -4 -310 -4 -322 -1 -49 13 -8 23 100 23 61 1 126 5 142 10 21 7 -18 10 -130 10 -133 1 -167 5 -201 20 -136 62 -37 298 150 357 34 11 106 18 218 21 106 4 171 10 177 17 5 6 5 96 0 211 -36 843 -32 924 43 1015 46 56 144 69 191 26z m-10789 -7 c14 -11 33 -33 41 -49 11 -21 19 -26 39 -23 37 7 41 -25 22 -175 -25 -198 -36 -394 -37 -692 -1 -173 -5 -256 -9 -225 -5 28 -9 160 -10 295 -2 354 -20 266 -26 -130 -4 -214 -9 -323 -17 -339 -13 -26 -62 -51 -100 -51 -46 0 -128 31 -164 63 -53 47 -73 100 -83 229 -18 215 18 830 55 954 18 62 67 121 119 145 57 26 136 25 170 -2z m7120 -1338 c15 -24 216 -97 433 -156 134 -36 252 -67 263 -68 11 -1 20 -4 20 -8 0 -7 37 -15 109 -24 18 -2 43 -8 55 -12 27 -9 33 -10 79 -11 20 -1 37 -6 37 -11 0 -11 -59 -8 -209 10 -113 13 -111 12 -240 45 -215 53 -511 172 -555 222 -11 12 -14 22 -8 22 6 0 13 -4 16 -9z m4441 -21 c6 -4 28 -13 50 -20 22 -7 46 -18 54 -24 8 -6 16 -10 18 -8 2 2 45 -10 96 -27 156 -50 560 -160 600 -163 21 -1 41 -6 43 -10 3 -4 25 -8 50 -8 24 0 44 -4 44 -9 0 -5 -10 -8 -22 -6 -13 2 -57 6 -98 10 -216 17 -475 82 -690 173 -109 46 -183 85 -188 100 -4 12 22 7 43 -8z m-11615 -98 c162 -56 207 -116 144 -192 -45 -53 -99 -75 -184 -75 -79 0 -124 17 -198 73 -67 51 -103 152 -66 183 49 41 201 46 304 11z"></path><path id="paV4HnNy1" d="M9425 10453 c-20 -4 -20 -10 -17 -356 1 -194 7 -369 13 -390 20 -75 97 -88 125 -22 17 41 19 179 4 292 -15 111 -80 426 -90 437 -5 5 -6 14 -4 21 6 16 -5 22 -31 18z"></path><path id="p1CCBplaqC" d="M9115 10430 c-1 -3 -6 -25 -10 -50 -4 -25 -22 -127 -41 -228 -19 -100 -34 -200 -34 -221 0 -49 26 -74 71 -69 46 4 60 37 72 168 7 85 4 326 -5 390 -2 14 -46 22 -53 10z"></path><path id="pLOxlFawx" d="M9720 10278 c0 -9 5 -20 10 -23 6 -4 8 -15 5 -25 -3 -9 1 -75 9 -146 8 -71 18 -175 22 -231 6 -88 10 -106 30 -128 31 -34 78 -34 100 0 13 20 16 39 11 88 -11 110 -95 402 -121 419 -6 4 -7 8 -3 8 4 0 3 9 -3 20 -6 12 -16 17 -26 13 -9 -3 -20 0 -25 8 -7 11 -9 11 -9 -3z"></path><path id="p13xL1MRjw" d="M10820 9581 c0 -10 30 -24 37 -17 3 2 -5 9 -16 16 -12 6 -21 7 -21 1z"></path><path id="p1FhbqGcoX" d="M10820 8871 c0 -30 137 -87 304 -126 92 -22 90 -17 -9 19 -49 19 -130 52 -178 75 -90 41 -117 49 -117 32z"></path><path id="p1xj6vx3n" d="M15120 9611 c0 -5 118 -46 220 -77 8 -2 -16 12 -55 31 -65 32 -165 60 -165 46z"></path><path id="pQ2Df4jup" d="M15242 8868 c8 -24 99 -65 212 -96 160 -45 183 -47 81 -9 -49 19 -131 53 -181 76 -97 43 -118 49 -112 29z"></path><path id="pinon0lGk" d="M3871 9365 c0 -66 4 -127 9 -135 12 -19 12 206 0 235 -5 13 -9 -24 -9 -100z"></path><path id="puBamFFTN" d="M3600 9223 c0 -64 2 -114 4 -112 2 2 7 55 11 117 5 78 3 112 -4 112 -7 0 -11 -40 -11 -117z"></path><path id="pophvRxCX" d="M12343 9390 c-1 -11 2 -20 8 -20 5 0 9 9 9 20 0 11 -4 20 -8 20 -4 0 -8 -9 -9 -20z"></path><path id="p16aQ3rQ2O" d="M12344 9346 c-3 -7 -1 -40 4 -72 l10 -59 1 73 c1 69 -4 88 -15 58z"></path><path id="pdUaNRorp" d="M12045 8308 c-3 -13 -1 -77 4 -143 l9 -120 -1 143 c0 78 -1 142 -3 142 -2 0 -6 -10 -9 -22z"></path><path id="p10onYNJVp" d="M6600 9378 c-38 -10 -113 -77 -136 -120 -20 -38 -18 -39 21 -22 55 23 65 19 65 -23 0 -21 -4 -55 -9 -76 -5 -20 -5 -39 -1 -42 5 -3 10 5 12 17 2 15 9 22 21 22 12 -1 17 6 17 27 0 15 5 31 10 34 11 6 9 -20 -5 -130 -2 -22 -7 -58 -10 -80 -27 -210 -10 -478 44 -701 16 -65 28 -120 26 -122 -5 -5 -45 106 -64 182 -38 146 -58 466 -38 604 5 35 4 51 -3 47 -6 -4 -10 11 -11 37 l-1 43 -9 -40 c-19 -89 -30 -307 -19 -404 19 -179 115 -490 149 -483 7 1 10 -2 7 -6 -3 -5 3 -17 13 -26 21 -19 27 -14 59 49 63 126 102 340 109 592 6 218 -3 304 -47 445 -37 115 -61 155 -105 174 -39 16 -46 16 -95 2z"></path></g></g></svg>